<?xml version="1.0" encoding="utf-8"?>
<svg version="1.1" id="Layer_1" xmlns="http://www.w3.org/2000/svg" xmlns:xlink="http://www.w3.org/1999/xlink" x="0px" y="0px"
	 viewBox="0 0 21.8 20.7" width="21.8" height="20.7" style="enable-background:new 0 0 21.8 20.7;" xml:space="preserve">
<style type="text/css">
	.st0{opacity:0.6;fill:#FFFFFF;enable-background:new;}
	.st1{fill:#FFFFFF;}
</style>
<g>
	<path class="st0" d="M12.3,13c-1.2,1.2-3.1,1.2-4.3,0S6.8,9.9,8,8.7s3.1-1.2,4.3,0S13.4,11.9,12.3,13z"/>
	<path class="st1" d="M19.6,0.7H16c-0.4,0-0.7,0.4-0.7,0.7c0,0.4,0.4,0.7,0.7,0.7h2l-3.2,3.2c-2.9-2.3-7-2.1-9.6,0.5
		s-2.8,6.9-0.5,9.6l-3.1,3.1c-0.3,0.3-0.4,0.7,0,1.1s0.7,0.4,1.1,0l3.7-3.7c0.3-0.3,0.4-0.7,0-1.1C4,12.8,4,9,6.2,6.8s6-2.2,8.2,0
		c0.3,0.3,0.7,0.4,1.1,0l3.7-3.7v2c0,0.4,0.4,0.7,0.7,0.7c0.2,0,0.4,0,0.5-0.2c0.2-0.2,0.2-0.4,0.2-0.5V1.5c0-0.2,0-0.4-0.2-0.5
		C20,0.8,19.8,0.7,19.6,0.7z"/>
</g>
</svg>
