<?xml version="1.0" encoding="utf-8"?>
<svg version="1.1" id="Layer_1" xmlns="http://www.w3.org/2000/svg" xmlns:xlink="http://www.w3.org/1999/xlink" x="0px" y="0px"
	 viewBox="0 0 21.8 20.7" width="21.8" height="20.7" style="enable-background:new 0 0 21.8 20.7;" xml:space="preserve">
<style type="text/css">
	.st0{opacity:0.6;fill:#FFFFFF;}
	.st1{fill:#FFFFFF;}
</style>
<g>
	<path class="st0" d="M0.9,7.5C0.7,7.7,0.3,7.4,0.4,7.1c0.3-0.8,0.7-1.5,1.2-2.2c2-2.4,5-2.7,7.1-2c2.7,0.7,4.5,3.6,7.7,3.7
		c1.4,0,2.9-0.7,4.4-1.8c0.3-0.2,0.6,0.1,0.5,0.4c-1.1,3.5-4.3,4.3-4.4,4.3c-5.5,1.6-7.6-3.7-11.7-3.7C3.9,5.7,2.4,6.4,0.9,7.5z"/>
	<path class="st1" d="M0.9,15.8c-0.3,0.2-0.6-0.1-0.5-0.4c0.3-0.8,0.7-1.5,1.2-2.2c2-2.4,5-2.7,7.1-2c2.7,0.7,4.5,3.6,7.7,3.7
		c1.4,0,2.9-0.7,4.4-1.8c0.3-0.2,0.6,0.1,0.5,0.4c-1.1,3.5-4.3,4.3-4.4,4.3c-5.5,1.6-7.6-3.7-11.7-3.7C3.9,14,2.4,14.7,0.9,15.8z"/>
</g>
</svg>
