<?xml version="1.0" encoding="utf-8"?>
<svg version="1.1" id="Layer_1" xmlns="http://www.w3.org/2000/svg" xmlns:xlink="http://www.w3.org/1999/xlink" x="0px" y="0px"
	 viewBox="0 0 74 48" width="74" height="48" style="enable-background:new 0 0 74 48;" xml:space="preserve">
<style type="text/css">
	.st0{fill:#FFFFFF;}
</style>
<g>
	<path class="st0" d="M70.9,8l0.7-1.8l-17.3,10l-0.9,0.5l0.3,1c1.9,5.4-0.3,11.5-5.3,14.4c-1.8,1-3.9,1.6-6,1.6
		c-4.3,0-8.3-2.3-10.4-6c-3.3-5.7-1.3-13,4.4-16.3c1.8-1,3.9-1.6,5.9-1.6c3.5,0,6.9,1.5,9.1,4.2l0.7,0.8l0.9-0.5L72.8,2.8L73.5,1
		l-21,12.1c-2.6-3-6.3-4.6-10.1-4.6c-2.2,0-4.5,0.6-6.6,1.8c-6.3,3.6-8.5,11.7-4.8,18c2.4,4.2,6.9,6.6,11.5,6.6
		c2.2,0,4.5-0.6,6.6-1.8c5.6-3.2,7.9-10,5.8-15.9C54.9,17.2,70.9,8,70.9,8z"/>
	<path class="st0" d="M42.4,12c-1.7,0-3.4,0.4-4.8,1.3c-4.6,2.7-6.2,8.6-3.5,13.2c1.7,3,4.9,4.8,8.4,4.8c1.7,0,3.4-0.4,4.8-1.3
		c2.2-1.3,3.8-3.4,4.5-5.9s0.3-5.1-1-7.3C49.1,13.9,45.9,12,42.4,12z M46.7,29c-1.3,0.8-2.8,1.1-4.2,1.1c-2.9,0-5.7-1.5-7.3-4.2
		c-2.3-4-0.9-9.2,3.1-11.5c1.3-0.8,2.8-1.1,4.2-1.1c2.9,0,5.7,1.5,7.3,4.2C52.1,21.5,50.7,26.7,46.7,29z M25.2,20.4
		c0-0.5,0.1-1.3,0.1-1.9c0-0.4-0.3-0.8-0.7-0.7c-1.5,0.1-4.5,0.6-4.3,2.9c0.1,0.8,0.2,1.9,0.3,2.9c0.1,1.6-0.5,3.1-1,4.5
		c-0.4,1.3-0.8,2.9-1.9,4.2c-0.9,1-2.5,1.5-3.9,2.5c-1.1,0.8-2.3,1.8-3.7,2.7C8,38.7,8.2,39.1,6,40.3c-2.1,1.2-2.3,1-4.4,2.3
		c-1.2,0.7-1.4,2.2-0.7,3.3c0.8,1.2,2.5,1.5,3.7,0.7c1.6-1,1.7-1.3,3.6-2.5c2.1-1.2,2-1.4,4.2-2.7c1.5-0.8,3-1.2,4.3-1.7
		c1.6-0.7,3.1-0.8,4.4-1.1c1.7-0.3,3.1-0.5,4.5-0.2c1.6,0.3,3,0.8,4.2,1.6c0.7,0.5,1.1,0.7,2.3,1.4c2.3,1.3,3.8-0.8,4.4-2
		c0.2-0.4,0-0.8-0.4-1c-0.5-0.2-1-0.4-1.4-0.6c-1.6-0.8-3.1-1.9-4.4-3.1c-1.3-1.2-2.1-2.8-3-4.4c-0.9-1.5-1.9-3.1-2.3-4.8
		C24.7,23.9,25.1,22.1,25.2,20.4z"/>
</g>
</svg>
