<svg version="1.1" id="Layer_1" xmlns="http://www.w3.org/2000/svg" x="0" y="0" viewBox="0 0 261 46" xml:space="preserve"><style>.st0{fill:#fff}</style><path class="st0" d="M70.6 6.9l.7-1.8-17.3 10-.9.5.3 1c1.9 5.4-.3 11.5-5.3 14.4-1.8 1-3.9 1.6-6 1.6-4.3 0-8.3-2.3-10.4-6-3.3-5.7-1.3-13 4.4-16.3 1.8-1 3.9-1.6 5.9-1.6 3.5 0 6.9 1.5 9.1 4.2l.7.8.9-.5L72.4 1.8l.7-1.8-21 12.1c-2.6-3-6.3-4.6-10.1-4.6-2.2 0-4.5.6-6.6 1.8-6.3 3.6-8.5 11.7-4.8 18 2.4 4.2 6.9 6.6 11.5 6.6 2.2 0 4.5-.6 6.6-1.8 5.6-3.2 7.9-10 5.8-15.9l16.1-9.3z"/><path class="st0" d="M42.1 10.9c-1.7 0-3.4.4-4.8 1.3-4.6 2.7-6.2 8.6-3.5 13.2 1.7 3 4.9 4.8 8.4 4.8 1.7 0 3.4-.4 4.8-1.3 2.2-1.3 3.8-3.4 4.5-5.9s.3-5.1-1-7.3c-1.8-2.9-5-4.8-8.4-4.8zm4.2 17c-1.3.8-2.8 1.1-4.2 1.1-2.9 0-5.7-1.5-7.3-4.2-2.3-4-.9-9.2 3.1-11.5 1.3-.8 2.8-1.1 4.2-1.1 2.9 0 5.7 1.5 7.3 4.2 2.3 4 .9 9.1-3.1 11.5zm-21.4-8.6c0-.5.1-1.3.1-1.9 0-.4-.3-.8-.7-.7-1.5.1-4.5.6-4.3 2.9.1.8.2 1.9.3 2.9.1 1.6-.5 3.1-1 4.5-.4 1.3-.8 2.9-1.9 4.2-.9 1-2.5 1.5-3.9 2.5-1.1.8-2.3 1.8-3.7 2.7-2.1 1.2-1.9 1.6-4.1 2.8s-2.3 1-4.4 2.3c-1.2.7-1.4 2.2-.7 3.3.8 1.2 2.5 1.5 3.7.7 1.6-1 1.7-1.3 3.6-2.5 2.1-1.2 2-1.4 4.2-2.7 1.5-.8 3-1.2 4.3-1.7 1.6-.7 3.1-.8 4.4-1.1 1.7-.3 3.1-.5 4.5-.2 1.6.3 3 .8 4.2 1.6.7.5 1.1.7 2.3 1.4 2.3 1.3 3.8-.8 4.4-2 .2-.4 0-.8-.4-1-.5-.2-1-.4-1.4-.6-1.6-.8-3.1-1.9-4.4-3.1-1.3-1.2-2.1-2.8-3-4.4-.9-1.5-1.9-3.1-2.3-4.8-.4-1.6 0-3.4.2-5.1zM83.2 33.5c-.8.3-1.7.5-2.6.5-1.5 0-2.8-.3-4-1-1.1-.7-2-1.6-2.6-2.7-.6-1.1-.9-2.3-.9-3.7 0-1.5.3-2.8.9-3.9.6-1.2 1.4-2 2.5-2.7 1.1-.6 2.3-1 3.7-1 .9 0 1.7.1 2.5.4.8.2 1.4.5 2 .9L83.6 23c-1-.8-2.1-1.2-3.2-1.2-.7 0-1.4.2-2.1.6-.6.4-1.2 1-1.5 1.7-.4.7-.6 1.5-.6 2.4s.2 1.8.5 2.5c.4.7.9 1.3 1.5 1.7.7.4 1.4.6 2.3.6.7 0 1.4-.1 1.9-.3.6-.2 1-.5 1.3-.8l1.2 2.6c-.3.1-.9.4-1.7.7zm7.5-10.7c.7-1.2 1.6-2.1 2.7-2.7 1.1-.7 2.4-1 3.7-1 1.3 0 2.6.3 3.7 1s2.1 1.6 2.7 2.7 1 2.4 1 3.7c0 1.4-.3 2.6-1 3.7s-1.6 2-2.7 2.7-2.4 1-3.7 1c-1.3 0-2.6-.3-3.7-1s-2-1.6-2.7-2.7c-.7-1.1-1-2.4-1-3.7s.4-2.6 1-3.7zm2.6 6c.4.7 1 1.3 1.6 1.7.7.4 1.5.6 2.3.6s1.6-.2 2.2-.6c.7-.4 1.2-1 1.6-1.7s.6-1.5.6-2.4-.2-1.7-.6-2.4-.9-1.3-1.6-1.7-1.4-.6-2.3-.6c-.8 0-1.6.2-2.3.6-.7.4-1.2 1-1.6 1.7s-.6 1.5-.6 2.4c.1.9.3 1.7.7 2.4zm24.9 5l-3.1-4.6h-1.9v4.6h-2.9V19.2h4.4c1.8 0 3.2.4 4.2 1.3s1.5 2.1 1.5 3.6c0 .9-.2 1.7-.6 2.5s-1 1.4-1.7 1.9l3.4 5.3h-3.3zm-5-7.5h2c.8 0 1.3-.2 1.7-.7.4-.5.5-.9.5-1.5 0-.5-.2-1-.5-1.5s-.9-.7-1.8-.7H113v4.4h.2zm22.1-7.1V22h-3.6v11.8h-2.9V21.9h-3.4v-2.8h9.9v.1zm8.4 0v14.6h-2.9V19.2h2.9zm15.7 14.3c-.8.3-1.7.5-2.6.5-1.5 0-2.8-.3-4-1-1.1-.7-2-1.6-2.6-2.7s-.9-2.3-.9-3.7c0-1.5.3-2.8.9-3.9s1.4-2 2.5-2.7c1.1-.6 2.3-1 3.7-1 .9 0 1.7.1 2.5.4.8.2 1.4.5 2 .9l-1.1 2.7c-1-.8-2.1-1.2-3.2-1.2-.7 0-1.4.2-2.1.6-.6.4-1.2 1-1.5 1.7-.4.7-.6 1.5-.6 2.4s.2 1.8.5 2.5c.4.7.9 1.3 1.5 1.7.7.4 1.4.6 2.3.6.7 0 1.4-.1 1.9-.3.6-.2 1-.5 1.3-.8l1.2 2.6c-.3.1-.9.4-1.7.7zm14.7-2.6h-4.8l-1.2 2.9h-2.8l6.6-15.2h.2l6.6 15.2h-3.3l-1.3-2.9zm-1-2.4l-1.4-3.6-1.5 3.6h2.9zm13.2-9.3V31h6.9v2.8h-9.7V19.2h2.8zm18.9.2v12.5h7.3v1.9h-9.2V19.5l1.9-.1zM226.7 30h-5.5l-1.5 3.8h-1.9l6.3-14.9h.1l6.3 14.9h-2.2l-1.6-3.8zm-.6-1.7l-2-5.2-2.1 5.2h4.1zm18.9-.6c.5.6.7 1.3.7 2.1 0 .9-.2 1.7-.7 2.3-.4.6-1 1-1.7 1.3s-1.5.4-2.4.4h-4.3V19.5h3.7c1.5 0 2.6.3 3.4.9.8.6 1.2 1.5 1.2 2.7 0 .8-.2 1.4-.5 2s-.8 1-1.4 1.3c.9.2 1.5.7 2 1.3zm-6.4-2h2.2c.7 0 1.3-.2 1.7-.6.4-.4.6-1 .6-1.6 0-.7-.2-1.3-.7-1.6-.5-.4-1.1-.5-1.9-.5h-1.9v4.3zm4.3 5.7c.5-.4.8-.9.8-1.7s-.3-1.3-.9-1.7-1.3-.5-2.1-.5h-2.1v4.4h2.3c.8.1 1.5-.1 2-.5zm15.4-10.1c-.6-.2-1.1-.3-1.6-.3-.8 0-1.4.2-1.9.5s-.7.8-.7 1.4c0 .6.3 1.1.8 1.5s1.3.8 2.3 1.1c.7.3 1.4.6 1.9.9.5.3.9.7 1.3 1.3.3.5.5 1.2.5 2.1 0 .8-.2 1.5-.6 2.1-.4.6-.9 1.1-1.6 1.5s-1.5.5-2.5.5c-.9 0-1.7-.1-2.6-.4-.8-.3-1.5-.6-2.2-1.1l.9-1.5c.5.4 1.1.7 1.8.9.7.3 1.3.4 1.9.4.8 0 1.4-.2 2-.6.6-.4.9-1 .9-1.8 0-.7-.2-1.2-.7-1.6-.5-.4-1.2-.8-2-1.1-.8-.3-1.5-.6-2-.9-.5-.3-1-.7-1.4-1.2s-.6-1.1-.6-1.9c0-1.1.4-2 1.2-2.7.8-.7 1.8-1.1 3.1-1.1 1.5 0 3 .4 4.3 1.2l-.7 1.5c-.7-.3-1.2-.5-1.8-.7z"/></svg>