<svg version="1.1" id="Layer_1" xmlns="http://www.w3.org/2000/svg" x="0" y="0" viewBox="0 0 120 100" xml:space="preserve"><style>.st0{fill:#fff}</style><path class="st0" d="M10.1 81.7c-.8.3-1.7.5-2.6.5-1.5 0-2.8-.3-4-1-1.1-.7-2-1.6-2.6-2.7-.6-1.1-.9-2.3-.9-3.7 0-1.5.3-2.8.9-3.9.6-1.2 1.4-2 2.5-2.7 1.1-.6 2.3-1 3.7-1 .9 0 1.7.1 2.5.4.8.2 1.4.5 2 .9l-1.1 2.7c-1-.8-2.1-1.2-3.2-1.2-.7 0-1.4.2-2.1.6-.6.4-1.2 1-1.5 1.7-.5.7-.7 1.5-.7 2.4 0 .9.2 1.8.5 2.5.4.7.9 1.3 1.5 1.7.7.4 1.4.6 2.3.6.7 0 1.4-.1 1.9-.3.6-.2 1-.5 1.3-.8l1.2 2.6c-.2.1-.8.4-1.6.7zM17.6 71c.7-1.2 1.6-2.1 2.7-2.7 1.1-.7 2.4-1 3.7-1 1.3 0 2.6.3 3.7 1s2.1 1.6 2.7 2.7c.7 1.2 1 2.4 1 3.7 0 1.3-.3 2.6-1 3.7s-1.6 2-2.7 2.7c-1.1.7-2.4 1-3.7 1-1.3 0-2.6-.3-3.7-1s-2-1.6-2.7-2.7c-.7-1.1-1-2.4-1-3.7 0-1.3.3-2.5 1-3.7zm2.6 6.1c.4.7 1 1.3 1.6 1.7.7.4 1.5.6 2.3.6.8 0 1.6-.2 2.2-.6.7-.4 1.2-1 1.6-1.7.4-.7.6-1.5.6-2.4 0-.9-.2-1.7-.6-2.4-.4-.7-.9-1.3-1.6-1.7-.7-.4-1.4-.6-2.3-.6-.8 0-1.6.2-2.3.6-.7.4-1.2 1-1.6 1.7-.4.7-.6 1.5-.6 2.4.1.9.3 1.7.7 2.4zM45 82l-3-4.6h-2V82h-2.9V67.4h4.4c1.8 0 3.2.4 4.2 1.3s1.5 2.1 1.5 3.6c0 .9-.2 1.7-.6 2.5-.4.8-1 1.4-1.7 1.9l3.4 5.3H45zm-5-7.4h2c.8 0 1.3-.2 1.7-.7s.5-.9.5-1.5-.2-1-.5-1.5-.9-.7-1.8-.7H40v4.4zM62.1 67.4v2.8h-3.6V82h-2.9V70.2h-3.4v-2.8h9.9zM70.5 67.4V82h-2.9V67.4h2.9zM86.3 81.7c-.8.3-1.7.5-2.6.5-1.5 0-2.8-.3-4-1-1.1-.7-2-1.6-2.6-2.7-.6-1.1-.9-2.3-.9-3.7 0-1.5.3-2.8.9-3.9.6-1.2 1.4-2 2.5-2.7 1.1-.6 2.3-1 3.7-1 .9 0 1.7.1 2.5.4.8.2 1.4.5 2 .9l-1.1 2.7c-1-.8-2.1-1.2-3.2-1.2-.7 0-1.4.2-2.1.6-.6.4-1.2 1-1.5 1.7-.4.7-.6 1.5-.6 2.3 0 .9.2 1.8.5 2.5.4.7.9 1.3 1.5 1.7.7.4 1.4.6 2.3.6.7 0 1.4-.1 1.9-.3.6-.2 1-.5 1.3-.8l1.2 2.6c-.3.2-.9.5-1.7.8zM100.9 79.2h-4.8L94.9 82H92l6.6-15.2h.2l6.6 15.2H102l-1.1-2.8zm-1-2.5l-1.4-3.6-1.5 3.6h2.9zM113.1 67.4v11.8h6.9V82h-9.7V67.4h2.8zM38.9 88.4v10h5.8v1.5h-7.4V88.4h1.6zM56.1 96.9h-4.4l-1.2 3H49L54 88h.1l5 11.9h-1.8l-1.2-3zm-.5-1.4L54 91.3l-1.7 4.2h3.3zM70.8 95c.4.5.6 1 .6 1.6 0 .7-.2 1.3-.5 1.8-.4.5-.8.8-1.4 1.1-.6.2-1.2.3-1.9.3h-3.4V88.4h3c1.2 0 2.1.2 2.7.7.6.5 1 1.2 1 2.2 0 .6-.1 1.1-.4 1.6-.3.5-.7.8-1.2 1.1.6.2 1.1.5 1.5 1zm-5.2-1.6h1.7c.6 0 1-.2 1.3-.5.3-.3.5-.8.5-1.3 0-.6-.2-1-.5-1.3-.4-.3-.9-.4-1.5-.4h-1.5v3.5zm3.5 4.6c.4-.3.7-.7.7-1.3 0-.6-.2-1-.7-1.3-.5-.3-1-.4-1.7-.4h-1.7v3.5h1.8c.6-.1 1.2-.2 1.6-.5zM81.4 89.9c-.5-.1-.9-.2-1.3-.2-.6 0-1.1.1-1.5.4-.4.3-.5.7-.5 1.2s.2.9.6 1.2c.4.3 1 .6 1.8.9.6.2 1.1.4 1.5.7.4.2.7.6 1 1 .3.4.4 1 .4 1.7 0 .6-.2 1.2-.5 1.7s-.7.9-1.3 1.2c-.6.3-1.2.4-2 .4-.7 0-1.4-.1-2-.3-.7-.2-1.2-.5-1.7-.9l.7-1.2c.4.3.9.5 1.4.8s1.1.3 1.5.3c.6 0 1.2-.2 1.6-.5.5-.3.7-.8.7-1.4 0-.5-.2-.9-.6-1.3-.4-.3-.9-.6-1.6-.9-.6-.2-1.2-.5-1.6-.7-.4-.2-.8-.6-1.1-1-.3-.4-.5-.9-.5-1.5 0-.9.3-1.6.9-2.2.6-.6 1.4-.8 2.5-.9 1.2 0 2.4.3 3.4.9l-.6 1.2c-.3-.3-.7-.5-1.2-.6z"/><g><path class="st0" d="M93.9 7l.7-1.8-17.3 10-.9.5.3 1c1.9 5.4-.3 11.5-5.3 14.4-1.8 1-3.9 1.6-6 1.6-4.3 0-8.3-2.3-10.4-6-3.3-5.7-1.3-13 4.4-16.3 1.8-1 3.9-1.6 5.9-1.6 3.5 0 6.9 1.5 9.1 4.2l.7.8.9-.5L95.8 1.8l.7-1.8-21 12.1c-2.6-3-6.3-4.6-10.1-4.6-2.2 0-4.5.6-6.6 1.8-6.3 3.6-8.5 11.7-4.8 18 2.4 4.2 6.9 6.6 11.5 6.6 2.2 0 4.5-.6 6.6-1.8 5.6-3.2 7.9-10 5.8-15.9l16-9.2z"/><path class="st0" d="M65.4 11c-1.7 0-3.4.4-4.8 1.3-4.6 2.7-6.2 8.6-3.5 13.2 1.7 3 4.9 4.8 8.4 4.8 1.7 0 3.4-.4 4.8-1.3 2.2-1.3 3.8-3.4 4.5-5.9.7-2.5.3-5.1-1-7.3-1.7-2.9-4.9-4.8-8.4-4.8zm4.3 17c-1.3.8-2.8 1.1-4.2 1.1-2.9 0-5.7-1.5-7.3-4.2-2.3-4-.9-9.2 3.1-11.5 1.3-.8 2.8-1.1 4.2-1.1 2.9 0 5.7 1.5 7.3 4.2 2.3 4 .9 9.2-3.1 11.5zM48.2 19.4c0-.5.1-1.3.1-1.9 0-.4-.3-.8-.7-.7-1.5.1-4.5.6-4.3 2.9.1.8.2 1.9.3 2.9.1 1.6-.5 3.1-1 4.5-.4 1.3-.8 2.9-1.9 4.2-.9 1-2.5 1.5-3.9 2.5-1.1.8-2.3 1.8-3.7 2.7-2.1 1.2-1.9 1.6-4.1 2.8-2.1 1.2-2.3 1-4.4 2.3-1.2.7-1.4 2.2-.7 3.3.8 1.2 2.5 1.5 3.7.7 1.6-1 1.7-1.3 3.6-2.5 2.1-1.2 2-1.4 4.2-2.7 1.5-.8 3-1.2 4.3-1.7 1.6-.7 3.1-.8 4.4-1.1 1.7-.3 3.1-.5 4.5-.2 1.6.3 3 .8 4.2 1.6.7.5 1.1.7 2.3 1.4 2.3 1.3 3.8-.8 4.4-2 .2-.4 0-.8-.4-1-.5-.2-1-.4-1.4-.6-1.6-.8-3.1-1.9-4.4-3.1-1.3-1.2-2.1-2.8-3-4.4-.9-1.5-1.9-3.1-2.3-4.8-.3-1.6.1-3.4.2-5.1z"/></g></svg>