<?xml version="1.0" encoding="utf-8"?>
<svg version="1.1" id="Layer_1" xmlns="http://www.w3.org/2000/svg" xmlns:xlink="http://www.w3.org/1999/xlink" x="0" y="0"
	 viewBox="0 0 261 46" style="enable-background:new 0 0 261 46;" xml:space="preserve">
<style type="text/css">
	.st0{fill:#FFFFFF;}
</style>
<g>
	<path class="st0" d="M70.6,6.9l0.7-1.8L54,15.1l-0.9,0.5l0.3,1c1.9,5.4-0.3,11.5-5.3,14.4c-1.8,1-3.9,1.6-6,1.6
		c-4.3,0-8.3-2.3-10.4-6c-3.3-5.7-1.3-13,4.4-16.3c1.8-1,3.9-1.6,5.9-1.6c3.5,0,6.9,1.5,9.1,4.2l0.7,0.8l0.9-0.5L72.4,1.8L73.1,0
		l-21,12.1c-2.6-3-6.3-4.6-10.1-4.6c-2.2,0-4.5,0.6-6.6,1.8c-6.3,3.6-8.5,11.7-4.8,18c2.4,4.2,6.9,6.6,11.5,6.6
		c2.2,0,4.5-0.6,6.6-1.8c5.6-3.2,7.9-10,5.8-15.9L70.6,6.9L70.6,6.9z"/>
	<path class="st0" d="M42.1,10.9c-1.7,0-3.4,0.4-4.8,1.3c-4.6,2.7-6.2,8.6-3.5,13.2c1.7,3,4.9,4.8,8.4,4.8c1.7,0,3.4-0.4,4.8-1.3
		c2.2-1.3,3.8-3.4,4.5-5.9s0.3-5.1-1-7.3C48.7,12.8,45.5,10.9,42.1,10.9z M46.3,27.9C45,28.7,43.5,29,42.1,29
		c-2.9,0-5.7-1.5-7.3-4.2c-2.3-4-0.9-9.2,3.1-11.5c1.3-0.8,2.8-1.1,4.2-1.1c2.9,0,5.7,1.5,7.3,4.2C51.7,20.4,50.3,25.5,46.3,27.9z
		 M24.9,19.3c0-0.5,0.1-1.3,0.1-1.9c0-0.4-0.3-0.8-0.7-0.7c-1.5,0.1-4.5,0.6-4.3,2.9c0.1,0.8,0.2,1.9,0.3,2.9c0.1,1.6-0.5,3.1-1,4.5
		c-0.4,1.3-0.8,2.9-1.9,4.2c-0.9,1-2.5,1.5-3.9,2.5c-1.1,0.8-2.3,1.8-3.7,2.7c-2.1,1.2-1.9,1.6-4.1,2.8s-2.3,1-4.4,2.3
		c-1.2,0.7-1.4,2.2-0.7,3.3c0.8,1.2,2.5,1.5,3.7,0.7c1.6-1,1.7-1.3,3.6-2.5c2.1-1.2,2-1.4,4.2-2.7c1.5-0.8,3-1.2,4.3-1.7
		c1.6-0.7,3.1-0.8,4.4-1.1c1.7-0.3,3.1-0.5,4.5-0.2c1.6,0.3,3,0.8,4.2,1.6c0.7,0.5,1.1,0.7,2.3,1.4c2.3,1.3,3.8-0.8,4.4-2
		c0.2-0.4,0-0.8-0.4-1c-0.5-0.2-1-0.4-1.4-0.6c-1.6-0.8-3.1-1.9-4.4-3.1c-1.3-1.2-2.1-2.8-3-4.4c-0.9-1.5-1.9-3.1-2.3-4.8
		C24.3,22.8,24.7,21,24.9,19.3L24.9,19.3z"/>
	<g>
		<path class="st0" d="M83.2,33.5c-0.8,0.3-1.7,0.5-2.6,0.5c-1.5,0-2.8-0.3-4-1c-1.1-0.7-2-1.6-2.6-2.7c-0.6-1.1-0.9-2.3-0.9-3.7
			c0-1.5,0.3-2.8,0.9-3.9c0.6-1.2,1.4-2,2.5-2.7c1.1-0.6,2.3-1,3.7-1c0.9,0,1.7,0.1,2.5,0.4c0.8,0.2,1.4,0.5,2,0.9L83.6,23
			c-1-0.8-2.1-1.2-3.2-1.2c-0.7,0-1.4,0.2-2.1,0.6c-0.6,0.4-1.2,1-1.5,1.7c-0.4,0.7-0.6,1.5-0.6,2.4s0.2,1.8,0.5,2.5
			c0.4,0.7,0.9,1.3,1.5,1.7c0.7,0.4,1.4,0.6,2.3,0.6c0.7,0,1.4-0.1,1.9-0.3c0.6-0.2,1-0.5,1.3-0.8l1.2,2.6
			C84.6,32.9,84,33.2,83.2,33.5L83.2,33.5z M90.7,22.8c0.7-1.2,1.6-2.1,2.7-2.7c1.1-0.7,2.4-1,3.7-1c1.3,0,2.6,0.3,3.7,1
			s2.1,1.6,2.7,2.7s1,2.4,1,3.7c0,1.4-0.3,2.6-1,3.7s-1.6,2-2.7,2.7s-2.4,1-3.7,1c-1.3,0-2.6-0.3-3.7-1s-2-1.6-2.7-2.7
			c-0.7-1.1-1-2.4-1-3.7S90.1,23.9,90.7,22.8z M93.3,28.8c0.4,0.7,1,1.3,1.6,1.7c0.7,0.4,1.5,0.6,2.3,0.6s1.6-0.2,2.2-0.6
			c0.7-0.4,1.2-1,1.6-1.7s0.6-1.5,0.6-2.4s-0.2-1.7-0.6-2.4s-0.9-1.3-1.6-1.7s-1.4-0.6-2.3-0.6c-0.8,0-1.6,0.2-2.3,0.6
			c-0.7,0.4-1.2,1-1.6,1.7s-0.6,1.5-0.6,2.4C92.7,27.3,92.9,28.1,93.3,28.8L93.3,28.8z M118.2,33.8l-3.1-4.6h-1.9v4.6h-2.9V19.2h4.4
			c1.8,0,3.2,0.4,4.2,1.3s1.5,2.1,1.5,3.6c0,0.9-0.2,1.7-0.6,2.5s-1,1.4-1.7,1.9l3.4,5.3H118.2z M113.2,26.3h2
			c0.8,0,1.3-0.2,1.7-0.7c0.4-0.5,0.5-0.9,0.5-1.5c0-0.5-0.2-1-0.5-1.5s-0.9-0.7-1.8-0.7H113v4.4H113.2z M135.3,19.2V22h-3.6v11.8
			h-2.9V21.9h-3.4v-2.8h9.9V19.2z M143.7,19.2v14.6h-2.9V19.2H143.7z M159.4,33.5c-0.8,0.3-1.7,0.5-2.6,0.5c-1.5,0-2.8-0.3-4-1
			c-1.1-0.7-2-1.6-2.6-2.7s-0.9-2.3-0.9-3.7c0-1.5,0.3-2.8,0.9-3.9s1.4-2,2.5-2.7c1.1-0.6,2.3-1,3.7-1c0.9,0,1.7,0.1,2.5,0.4
			c0.8,0.2,1.4,0.5,2,0.9l-1.1,2.7c-1-0.8-2.1-1.2-3.2-1.2c-0.7,0-1.4,0.2-2.1,0.6c-0.6,0.4-1.2,1-1.5,1.7c-0.4,0.7-0.6,1.5-0.6,2.4
			s0.2,1.8,0.5,2.5c0.4,0.7,0.9,1.3,1.5,1.7c0.7,0.4,1.4,0.6,2.3,0.6c0.7,0,1.4-0.1,1.9-0.3c0.6-0.2,1-0.5,1.3-0.8l1.2,2.6
			C160.8,32.9,160.2,33.2,159.4,33.5L159.4,33.5z M174.1,30.9h-4.8l-1.2,2.9h-2.8l6.6-15.2h0.2l6.6,15.2h-3.3L174.1,30.9L174.1,30.9
			z M173.1,28.5l-1.4-3.6l-1.5,3.6H173.1z M186.3,19.2V31h6.9v2.8h-9.7V19.2H186.3z M205.2,19.4v12.5h7.3v1.9h-9.2V19.5L205.2,19.4
			L205.2,19.4z M226.7,30h-5.5l-1.5,3.8h-1.9l6.3-14.9h0.1l6.3,14.9h-2.2L226.7,30L226.7,30z M226.1,28.3l-2-5.2l-2.1,5.2H226.1z
			 M245,27.7c0.5,0.6,0.7,1.3,0.7,2.1c0,0.9-0.2,1.7-0.7,2.3c-0.4,0.6-1,1-1.7,1.3s-1.5,0.4-2.4,0.4h-4.3V19.5h3.7
			c1.5,0,2.6,0.3,3.4,0.9c0.8,0.6,1.2,1.5,1.2,2.7c0,0.8-0.2,1.4-0.5,2s-0.8,1-1.4,1.3C243.9,26.6,244.5,27.1,245,27.7L245,27.7z
			 M238.6,25.7h2.2c0.7,0,1.3-0.2,1.7-0.6c0.4-0.4,0.6-1,0.6-1.6c0-0.7-0.2-1.3-0.7-1.6c-0.5-0.4-1.1-0.5-1.9-0.5h-1.9L238.6,25.7
			L238.6,25.7z M242.9,31.4c0.5-0.4,0.8-0.9,0.8-1.7s-0.3-1.3-0.9-1.7s-1.3-0.5-2.1-0.5h-2.1v4.4h2.3
			C241.7,32,242.4,31.8,242.9,31.4L242.9,31.4z M258.3,21.3c-0.6-0.2-1.1-0.3-1.6-0.3c-0.8,0-1.4,0.2-1.9,0.5s-0.7,0.8-0.7,1.4
			c0,0.6,0.3,1.1,0.8,1.5s1.3,0.8,2.3,1.1c0.7,0.3,1.4,0.6,1.9,0.9c0.5,0.3,0.9,0.7,1.3,1.3c0.3,0.5,0.5,1.2,0.5,2.1
			c0,0.8-0.2,1.5-0.6,2.1c-0.4,0.6-0.9,1.1-1.6,1.5s-1.5,0.5-2.5,0.5c-0.9,0-1.7-0.1-2.6-0.4c-0.8-0.3-1.5-0.6-2.2-1.1l0.9-1.5
			c0.5,0.4,1.1,0.7,1.8,0.9c0.7,0.3,1.3,0.4,1.9,0.4c0.8,0,1.4-0.2,2-0.6c0.6-0.4,0.9-1,0.9-1.8c0-0.7-0.2-1.2-0.7-1.6
			c-0.5-0.4-1.2-0.8-2-1.1c-0.8-0.3-1.5-0.6-2-0.9c-0.5-0.3-1-0.7-1.4-1.2s-0.6-1.1-0.6-1.9c0-1.1,0.4-2,1.2-2.7
			c0.8-0.7,1.8-1.1,3.1-1.1c1.5,0,3,0.4,4.3,1.2l-0.7,1.5C259.4,21.7,258.9,21.5,258.3,21.3L258.3,21.3z"/>
	</g>
</g>
</svg>
