<?xml version="1.0" encoding="utf-8"?>
<svg version="1.1" id="Layer_1" xmlns="http://www.w3.org/2000/svg" xmlns:xlink="http://www.w3.org/1999/xlink" x="0px" y="0px"
	 viewBox="0 0 17 17" width="17" height="17" style="enable-background:new 0 0 17 17;" xml:space="preserve">
<style type="text/css">
	.st0{fill:#FFFFFF;}
</style>
<g>
	<path class="st0" d="M17,1.8c0,0.1,0,0.2,0,0.4c-0.4,0.4-0.8,0.7-1.2,1.1c-0.2,0.2-0.3,0.4-0.3,0.6c0,3.1,0,6.2,0,9.3
		c0,0.2,0.1,0.5,0.3,0.6c0.4,0.4,0.8,0.8,1.2,1.2c0,0.1,0,0.1,0,0.2c-0.1,0-0.2,0-0.2,0c-2.1,0-4.1,0-6.2,0c-0.1,0-0.2-0.1-0.3-0.1
		c0-0.1,0-0.2,0.1-0.3c0.3-0.4,0.7-0.7,1.1-1c0.2-0.2,0.3-0.5,0.3-0.8c0-2.3,0-4.7,0-7c0-0.1,0-0.2,0-0.4c-0.1,0.1-0.2,0.2-0.2,0.3
		c-1.2,3-2.3,5.9-3.5,8.9c-0.1,0.2-0.1,0.3-0.4,0.3c-0.3,0-0.3-0.1-0.4-0.3C6,12,4.6,9,3.3,6C3.2,5.9,3.2,5.8,3.1,5.7c0,0,0,0-0.1,0
		C3,5.8,3,6,3,6.1c0,2,0,3.9,0,5.9c0,0.3,0.1,0.6,0.3,0.8c0.5,0.6,1.1,1.3,1.6,1.9C5,14.9,5,15,5.1,15.2c-1.8,0-3.4,0-5.1,0
		c0-0.1,0-0.2,0-0.4c0,0,0.1,0,0.1,0c0.6-0.7,1.2-1.4,1.7-2.1C1.9,12.5,2,12.3,2,12.2c0-2.5,0-5.1,0-7.6c0-0.2-0.1-0.4-0.2-0.6
		C1.3,3.4,0.8,2.8,0.4,2.2C0.3,2.1,0.2,1.9,0.2,1.8c0.2,0,0.3,0,0.4,0c1.4,0,2.8,0,4.2,0c0.3,0,0.4,0.1,0.5,0.3
		c1.2,2.6,2.3,5.1,3.5,7.7c0,0.1,0.1,0.2,0.2,0.4C9,9.9,9,9.9,9.1,9.8c1-2.6,2.1-5.2,3.1-7.7c0.1-0.2,0.2-0.3,0.4-0.3
		C14.1,1.8,15.5,1.8,17,1.8z"/>
</g>
</svg>
